<svg preserveAspectRatio="none" width="100%" height="100%" overflow="visible" style="display: block;" viewBox="0 0 200 52" fill="none" xmlns="http://www.w3.org/2000/svg">
<path id="Frame" d="M198 0C199.105 0 200 0.895431 200 2V50C200 51.1046 199.105 52 198 52H135.484C134.38 52 133.484 51.1046 133.484 50V49.583C133.484 48.4784 132.589 47.583 131.484 47.583H67.9375C66.8329 47.583 65.9375 48.4784 65.9375 49.583V50C65.9375 51.1046 65.0421 52 63.9375 52H9.15527C8.4521 52 7.80065 51.6306 7.43945 51.0273L0.28418 39.0684C0.0984906 38.758 0 38.4027 0 38.041V2C5.24473e-07 0.895431 0.895431 1.44958e-08 2 0H198Z" fill="var(--fill-0, #2E2E2E)"/>
</svg>
