<svg preserveAspectRatio="none" width="100%" height="100%" overflow="visible" style="display: block;" viewBox="0 0 1921 134" fill="none" xmlns="http://www.w3.org/2000/svg">
<g id="Group">
<path id="Vector" d="M892.26 101.626L858.861 132.94H1920.33V90.1076H1901.91L1872.73 117.463H1648.15L1607.46 79.3094H1352.93L1329.13 101.626H892.26Z" fill="var(--fill-0, #FF9406)"/>
<path id="Vector_2" d="M1028.07 101.626L1061.47 132.94H0.000488281V90.1076H18.4275L47.6035 117.463H272.182L312.875 79.3094H567.398L591.2 101.626H1028.07Z" fill="var(--fill-0, #FF9406)"/>
<path id="Vector_3" d="M1345.45 112.964L1367.33 92.4471H1382.69L1361 112.784L1345.45 112.964Z" fill="var(--fill-0, white)"/>
<path id="Vector_4" d="M1376.55 112.964L1398.43 92.4471H1413.78L1392.09 112.784L1376.55 112.964Z" fill="var(--fill-0, white)"/>
<path id="Vector_5" d="M1407.64 112.964L1429.52 92.4471H1444.88L1423.19 112.784L1407.64 112.964Z" fill="var(--fill-0, white)"/>
<path id="Vector_6" d="M1836.79 66.7114H1835.15V83.8086H1836.79V66.7114Z" fill="var(--fill-0, white)"/>
<path id="Vector_7" d="M1826.85 74.4897V76.0303H1845.09V74.4897H1826.85Z" fill="var(--fill-0, white)"/>
<path id="Vector_8" d="M575.354 112.964L553.472 92.447H538.116L559.806 112.784L575.354 112.964Z" fill="var(--fill-0, white)"/>
<path id="Vector_9" d="M544.259 112.964L522.376 92.447H507.021L528.711 112.784L544.259 112.964Z" fill="var(--fill-0, white)"/>
<path id="Vector_10" d="M513.163 112.964L491.281 92.447H475.925L497.615 112.784L513.163 112.964Z" fill="var(--fill-0, white)"/>
<path id="Vector_11" d="M84.0148 83.8085H85.653V66.7113H84.0148V83.8085Z" fill="var(--fill-0, white)"/>
<path id="Vector_12" d="M75.714 74.4896V76.0302H93.949V74.4896H75.714Z" fill="var(--fill-0, white)"/>
<g id="Group_2" opacity="0.51">
<path id="Vector_13" d="M487.66 133.12L451.275 99.0016H335.803L309.548 123.622H33.677L9.56835 101.014V8.22112L0.800171 6.10352e-05V133.12H487.66Z" fill="var(--fill-0, #A55137)"/>
<path id="Vector_14" d="M916.583 133.095L901.254 118.723H882.47L897.826 133.12L916.583 133.095Z" fill="var(--fill-0, #A55137)"/>
<path id="Vector_15" d="M885.872 133.095L870.543 118.723H851.759L867.114 133.12L885.872 133.095Z" fill="var(--fill-0, #A55137)"/>
<path id="Vector_16" d="M855.16 133.095L839.831 118.723H821.047L836.403 133.12L855.16 133.095Z" fill="var(--fill-0, #A55137)"/>
<path id="Vector_17" d="M824.449 133.095L809.12 118.723H790.336L805.691 133.12L824.449 133.095Z" fill="var(--fill-0, #A55137)"/>
<path id="Vector_18" d="M793.737 133.095L778.408 118.723H759.624L774.979 133.12L793.737 133.095Z" fill="var(--fill-0, #A55137)"/>
<path id="Vector_19" d="M763.025 133.095L747.696 118.723H728.912L744.268 133.12L763.025 133.095Z" fill="var(--fill-0, #A55137)"/>
<path id="Vector_20" d="M732.313 133.095L716.984 118.723H698.2L713.556 133.12L732.313 133.095Z" fill="var(--fill-0, #A55137)"/>
<path id="Vector_21" d="M701.602 133.095L686.273 118.723H667.489L682.844 133.12L701.602 133.095Z" fill="var(--fill-0, #A55137)"/>
<path id="Vector_22" d="M670.89 133.095L655.561 118.723H636.777L652.133 133.12L670.89 133.095Z" fill="var(--fill-0, #A55137)"/>
</g>
<g id="Group_3" opacity="0.51">
<path id="Vector_23" d="M1433.47 133.12L1469.86 99.0016H1585.33L1611.58 123.622H1887.46L1911.56 101.014V8.22112L1920.33 6.10352e-05V133.12H1433.47Z" fill="var(--fill-0, #A55137)"/>
<path id="Vector_24" d="M1004.55 133.095L1019.88 118.723H1038.66L1023.31 133.12L1004.55 133.095Z" fill="var(--fill-0, #A55137)"/>
<path id="Vector_25" d="M1035.26 133.095L1050.59 118.723H1069.37L1054.02 133.12L1035.26 133.095Z" fill="var(--fill-0, #A55137)"/>
<path id="Vector_26" d="M1065.97 133.095L1081.3 118.723H1100.09L1084.73 133.12L1065.97 133.095Z" fill="var(--fill-0, #A55137)"/>
<path id="Vector_27" d="M1096.68 133.095L1112.01 118.723H1130.8L1115.44 133.12L1096.68 133.095Z" fill="var(--fill-0, #A55137)"/>
<path id="Vector_28" d="M1127.4 133.095L1142.72 118.723H1161.51L1146.15 133.12L1127.4 133.095Z" fill="var(--fill-0, #A55137)"/>
<path id="Vector_29" d="M1158.11 133.095L1173.44 118.723H1192.22L1176.86 133.12L1158.11 133.095Z" fill="var(--fill-0, #A55137)"/>
<path id="Vector_30" d="M1188.82 133.095L1204.15 118.723H1222.93L1207.58 133.12L1188.82 133.095Z" fill="var(--fill-0, #A55137)"/>
<path id="Vector_31" d="M1219.53 133.095L1234.86 118.723H1253.64L1238.29 133.12L1219.53 133.095Z" fill="var(--fill-0, #A55137)"/>
<path id="Vector_32" d="M1250.24 133.095L1265.57 118.723H1284.36L1269 133.12L1250.24 133.095Z" fill="var(--fill-0, #A55137)"/>
</g>
</g>
</svg>
