<svg preserveAspectRatio="none" width="100%" height="100%" overflow="visible" style="display: block;" viewBox="0 0 280 16" fill="none" xmlns="http://www.w3.org/2000/svg">
<g id="Group 1788">
<path id="Rectangle 1292" d="M273.419 0.5L279.361 8L273.419 15.5H6.58105L0.637695 8L6.58105 0.5H273.419Z" stroke="var(--stroke-0, #905200)"/>
<path id="Rectangle 1293" d="M4 8L7.96226 13V3L4 8Z" fill="var(--fill-0, #FF9307)"/>
<path id="Rectangle 1294" d="M275.962 8L272 13V3L275.962 8Z" fill="var(--fill-0, #FF9307)"/>
<g id="Frame 1774">
<path id="Rectangle 1296" d="M10 3H19L14 13H10V3Z" fill="var(--fill-0, #FFB300)"/>
<path id="Rectangle 1297" d="M22 3H26L21 13H17L22 3Z" fill="var(--fill-0, #FFB300)"/>
<path id="Rectangle 1298" d="M29 3H33L28 13H24L29 3Z" fill="var(--fill-0, #FFB300)"/>
<path id="Rectangle 1299" d="M36 3H40L35 13H31L36 3Z" fill="var(--fill-0, #FFB300)"/>
<path id="Rectangle 1300" d="M43 3H47L42 13H38L43 3Z" fill="var(--fill-0, #FFB300)"/>
<path id="Rectangle 1301" d="M50 3H54L49 13H45L50 3Z" fill="var(--fill-0, #FFB300)"/>
<path id="Rectangle 1302" d="M57 3H61L56 13H52L57 3Z" fill="var(--fill-0, #FFB300)"/>
<path id="Rectangle 1303" d="M64 3H68L63 13H59L64 3Z" fill="var(--fill-0, #FFB300)"/>
<path id="Rectangle 1304" d="M71 3H75L70 13H66L71 3Z" fill="var(--fill-0, #FFB300)"/>
<path id="Rectangle 1305" d="M78 3H82L77 13H73L78 3Z" fill="var(--fill-0, #FFB300)"/>
<path id="Rectangle 1306" d="M85 3H89L84 13H80L85 3Z" fill="var(--fill-0, #FFB300)"/>
<path id="Rectangle 1307" d="M92 3H96L91 13H87L92 3Z" fill="var(--fill-0, #FFB300)"/>
<path id="Rectangle 1308" d="M99 3H103L98 13H94L99 3Z" fill="var(--fill-0, #FFB300)"/>
<path id="Rectangle 1309" d="M106 3H110L105 13H101L106 3Z" fill="var(--fill-0, #FFB300)"/>
<path id="Rectangle 1310" d="M113 3H117L112 13H108L113 3Z" fill="var(--fill-0, #FFB300)"/>
<path id="Rectangle 1311" d="M120 3H124L119 13H115L120 3Z" fill="var(--fill-0, #FFB300)"/>
<path id="Rectangle 1312" d="M127 3H131L126 13H122L127 3Z" fill="var(--fill-0, #FFB300)"/>
<path id="Rectangle 1313" d="M134 3H138L133 13H129L134 3Z" fill="var(--fill-0, #FFB300)"/>
<path id="Rectangle 1314" d="M141 3H145L140 13H136L141 3Z" fill="var(--fill-0, #FFB300)"/>
<path id="Rectangle 1315" d="M148 3H152L147 13H143L148 3Z" fill="var(--fill-0, #FFB300)"/>
<path id="Rectangle 1316" d="M155 3H159L154 13H150L155 3Z" fill="var(--fill-0, #FFB300)"/>
<path id="Rectangle 1317" d="M162 3H166L161 13H157L162 3Z" fill="var(--fill-0, #FFB300)"/>
<path id="Rectangle 1318" d="M169 3H173L168 13H164L169 3Z" fill="var(--fill-0, #FFB300)"/>
<path id="Rectangle 1319" d="M176 3H180L175 13H171L176 3Z" fill="var(--fill-0, #FFB300)"/>
<path id="Rectangle 1320" d="M183 3H187L182 13H178L183 3Z" fill="var(--fill-0, #FFB300)"/>
<path id="Rectangle 1321" d="M190 3H194L189 13H185L190 3Z" fill="var(--fill-0, #FFB300)"/>
<path id="Rectangle 1322" d="M197 3H201L196 13H192L197 3Z" fill="var(--fill-0, #FFB300)"/>
<path id="Rectangle 1323" d="M204 3H208L203 13H199L204 3Z" fill="var(--fill-0, #FFB300)"/>
<path id="Rectangle 1324" d="M215 13H206L211 3H215V13Z" fill="var(--fill-0, #FFB300)"/>
</g>
</g>
</svg>
