<svg preserveAspectRatio="none" width="100%" height="100%" overflow="visible" style="display: block;" viewBox="0 0 32 32" fill="none" xmlns="http://www.w3.org/2000/svg">
<g id="Group">
<path id="Vector" d="M31.9255 12.0276L31.9259 12.0275L31.9159 11.9455C31.9158 11.9441 31.9157 11.943 31.9155 11.9416C31.9154 11.9404 31.9153 11.9394 31.9151 11.9382L31.8779 11.6297C31.8705 11.5678 31.862 11.4972 31.8523 11.4167L31.8445 11.3526L31.8286 11.3546C31.4383 9.13463 30.366 7.0279 28.7053 5.22905C27.0524 3.43884 24.9049 2.02536 22.495 1.14142C20.4303 0.384072 18.2395 0 15.9837 0C12.9383 0 9.98067 0.716236 7.43063 2.07122C2.51324 4.68397 -0.386887 9.48643 0.0417535 14.3062C0.263628 16.8002 1.2407 19.1742 2.86742 21.1719C4.39852 23.0521 6.46975 24.5694 8.85706 25.5597C10.3249 26.1686 11.7763 26.4555 13.313 26.7593L13.4929 26.7949C13.916 26.8786 14.0298 26.9937 14.0591 27.0392C14.1134 27.1238 14.085 27.2906 14.0632 27.3824C14.0432 27.4671 14.0224 27.5516 14.0017 27.6362C13.8367 28.3091 13.6661 29.0049 13.8001 29.7721C13.9542 30.654 14.5049 31.1598 15.3111 31.1599H15.3113C16.1784 31.1599 17.1653 30.5782 17.8183 30.1934L17.9055 30.1421C19.4633 29.2272 20.931 28.1952 22.0355 27.3984C24.4525 25.6546 27.192 23.678 29.2459 21.1209C31.3141 18.5455 32.2883 15.2361 31.9255 12.0276ZM9.96524 16.9069H7.20454C6.78734 16.9069 6.44914 16.5687 6.44914 16.1515V10.3569C6.44914 9.93968 6.78734 9.60147 7.20454 9.60147C7.62175 9.60147 7.95995 9.93968 7.95995 10.3569V15.3961H9.96513C10.3823 15.3961 10.7205 15.7343 10.7205 16.1515C10.7207 16.5687 10.3824 16.9069 9.96524 16.9069ZM12.8452 16.131C12.8452 16.5482 12.507 16.8864 12.0898 16.8864C11.6726 16.8864 11.3344 16.5482 11.3344 16.131V10.3364C11.3344 9.91917 11.6726 9.58096 12.0898 9.58096C12.507 9.58096 12.8452 9.91917 12.8452 10.3364V16.131ZM19.6734 16.131C19.6734 16.4583 19.4627 16.7484 19.1513 16.8495C19.0745 16.8744 18.9958 16.8865 18.9181 16.8865C18.6808 16.8865 18.4516 16.7744 18.3067 16.5749L15.5865 12.8284V16.1311C15.5865 16.5483 15.2483 16.8865 14.8311 16.8865C14.4138 16.8865 14.0756 16.5483 14.0756 16.1311V10.5022C14.0756 10.1749 14.2864 9.88485 14.5977 9.78374C14.9092 9.68273 15.2501 9.79345 15.4424 10.0584L18.1626 13.8049V10.3364C18.1626 9.91917 18.5008 9.58096 18.918 9.58096C19.3352 9.58096 19.6734 9.91917 19.6734 10.3364V16.131ZM25.1779 16.7675H21.4392C21.022 16.7675 20.6837 16.4293 20.6837 16.0121V13.1149V10.2174C20.6837 9.80025 21.022 9.46204 21.4392 9.46204H25.0619C25.4791 9.46204 25.8173 9.80025 25.8173 10.2174C25.8173 10.6347 25.4791 10.9729 25.0619 10.9729H22.1946V12.3595H24.5214C24.9386 12.3595 25.2768 12.6977 25.2768 13.1149C25.2768 13.5321 24.9386 13.8703 24.5214 13.8703H22.1946V15.2567H25.1779C25.5951 15.2567 25.9333 15.5949 25.9333 16.0121C25.9333 16.4293 25.5951 16.7675 25.1779 16.7675Z" fill="var(--fill-0, white)"/>
</g>
</svg>
