<svg preserveAspectRatio="none" width="100%" height="100%" overflow="visible" style="display: block;" viewBox="0 0 95 54" fill="none" xmlns="http://www.w3.org/2000/svg">
<g id="Group" opacity="0.3">
<path id="Vector" d="M93.0347 1.82899C92.0105 15.1501 86.1699 27.5263 76.4763 36.842C66.2888 46.6332 52.8944 52.0287 38.7624 52.0287C25.3741 52.0287 12.6139 47.1636 2.63364 38.2991L17.2473 23.6794C23.2952 28.6725 30.8672 31.4038 38.7624 31.4038C55.7842 31.4038 70.2028 18.546 72.3061 1.82899H93.0347M94.9795 0H70.66C69.4224 16.5402 55.6196 29.5748 38.7685 29.5748C30.4405 29.5748 22.8624 26.3924 17.1681 21.1798L0 38.3539C10.096 47.9561 23.7402 53.8577 38.7685 53.8577C69.0322 53.8577 93.7114 29.9589 94.9795 0Z" fill="var(--fill-0, #905200)" fill-opacity="0.6"/>
</g>
</svg>
