<svg preserveAspectRatio="none" width="100%" height="100%" overflow="visible" style="display: block;" viewBox="0 0 1920 1080" fill="none" xmlns="http://www.w3.org/2000/svg">
<g id="Group">
<path id="Vector" d="M858.391 0L891.79 31.3148H1328.66L1352.46 53.6311H1606.99L1647.68 15.4774H1872.26L1901.43 42.8329V334.024L1848.65 383.516V539.91H1919.86V0H858.391Z" fill="var(--fill-0, #FF9406)"/>
<path id="Vector_2" d="M1344.98 19.9767L1366.86 40.4932H1382.22L1360.53 20.1566L1344.98 19.9767Z" fill="var(--fill-0, white)"/>
<path id="Vector_3" d="M1376.07 19.9767L1397.96 40.4932H1413.31L1391.62 20.1566L1376.07 19.9767Z" fill="var(--fill-0, white)"/>
<path id="Vector_4" d="M1407.17 19.9767L1429.05 40.4932H1444.41L1422.72 20.1566L1407.17 19.9767Z" fill="var(--fill-0, white)"/>
<g id="Group_2" opacity="0.06">
<path id="Vector_5" d="M1670.82 27.5354H1848.51C1850.26 27.5355 1851.99 27.8585 1853.61 28.4859C1855.22 29.1134 1856.69 30.0331 1857.92 31.1924L1877.19 49.2542C1878.42 50.413 1879.41 51.7889 1880.07 53.3033C1880.74 54.8176 1881.09 56.4407 1881.09 58.0799V239.641C1881.09 250.763 1866.75 256.331 1858.36 248.467L1661.45 63.8426C1658.96 61.5095 1657.56 58.3483 1657.55 55.0492L1657.51 40.0505C1657.5 38.4086 1657.84 36.7818 1658.51 35.2634C1659.18 33.745 1660.15 32.3648 1661.39 31.2021C1662.63 30.0394 1664.1 29.117 1665.71 28.4878C1667.33 27.8586 1669.07 27.535 1670.82 27.5354V27.5354Z" fill="var(--fill-0, white)"/>
</g>
<g id="Vector_6" filter="url(#filter0_d_4024_8919)">
<path d="M1881.09 61.5245V311.888L1877.54 315.217V112.481L1867.51 103.08V61.3697L1881.09 61.5245Z" fill="url(#paint0_linear_4024_8919)"/>
</g>
<g id="Vector_7" filter="url(#filter1_d_4024_8919)">
<path d="M1880.9 315.127L1877.44 318.367V320.887L1880.9 317.647V315.127Z" fill="url(#paint1_linear_4024_8919)"/>
</g>
<g id="Vector_8" filter="url(#filter2_d_4024_8919)">
<path d="M1880.9 321.246L1877.44 324.486V327.005L1880.9 323.766V321.246Z" fill="url(#paint2_linear_4024_8919)"/>
</g>
<g id="Group_3" opacity="0.14">
<path id="Vector_9" d="M1867.46 438.857H1654.06L1497.91 292.451H1257.4L975.264 27.9169L976.078 27.1538L1257.88 291.371H1498.39L1654.54 437.777H1867.46V438.857Z" fill="var(--fill-0, white)"/>
</g>
<g id="Group_4" opacity="0.14">
<path id="Vector_10" d="M1393.9 291.933L1296.87 201.07V162.311L1157.56 31.6963L1158.37 30.9333L1298.02 161.865V200.623L1394.72 291.17L1393.9 291.933Z" fill="var(--fill-0, white)"/>
</g>
<g id="Group_5" opacity="0.14">
<path id="Vector_11" d="M1736.03 438.698L1505.87 222.9L1594.85 139.477L1495.06 45.9139L1495.87 45.1508L1596.48 139.477L1507.5 222.9L1736.85 437.935L1736.03 438.698Z" fill="var(--fill-0, white)"/>
</g>
<g id="Group_6" opacity="0.14">
<path id="Vector_12" d="M1560.14 172.786L1476.61 94.4698H1224.75V93.39H1477.08L1560.95 172.023L1560.14 172.786Z" fill="var(--fill-0, white)"/>
</g>
<g id="Group_7" opacity="0.14">
<path id="Vector_13" d="M1860.34 416.112L1717.55 282.236V15.4774H1718.7V281.79L1861.15 415.349L1860.34 416.112Z" fill="var(--fill-0, white)"/>
</g>
<g id="Group_8" opacity="0.03">
<path id="Vector_14" d="M1593.17 88.1853L1471.93 201.858C1471.02 202.708 1469.79 203.186 1468.51 203.186H1254.66C1253.37 203.186 1252.14 202.708 1251.23 201.858L1130.1 88.2825C1129.42 87.6475 1128.96 86.8389 1128.78 85.9587C1128.59 85.0785 1128.69 84.1664 1129.05 83.3374C1129.42 82.5085 1130.04 81.8 1130.84 81.3015C1131.63 80.803 1132.57 80.5368 1133.52 80.5366H1589.64C1590.59 80.5369 1591.51 80.7964 1592.3 81.2831C1593.09 81.7697 1593.71 82.4623 1594.08 83.2754C1594.46 84.0885 1594.57 84.9866 1594.41 85.8591C1594.25 86.7315 1593.81 87.5401 1593.17 88.1853V88.1853Z" fill="var(--fill-0, white)"/>
</g>
<g id="Vector_15" filter="url(#filter3_d_4024_8919)">
<path d="M1836.32 49.1318H1834.68V66.2289H1836.32V49.1318Z" fill="url(#paint3_linear_4024_8919)"/>
</g>
<g id="Vector_16" filter="url(#filter4_d_4024_8919)">
<path d="M1844.62 58.447V56.9101H1826.38V58.447H1844.62Z" fill="url(#paint4_linear_4024_8919)"/>
</g>
<path id="Vector_17" d="M858.391 1079.82L891.79 1048.51H1328.66L1352.46 1026.19H1606.99L1647.68 1064.34H1872.26L1901.43 1036.99V745.796L1848.65 696.304V539.91H1919.86V1079.82H858.391Z" fill="var(--fill-0, #FF9406)"/>
<path id="Vector_18" d="M1344.98 1059.84L1366.86 1039.33H1382.22L1360.53 1059.66L1344.98 1059.84Z" fill="var(--fill-0, white)"/>
<path id="Vector_19" d="M1376.07 1059.84L1397.96 1039.33H1413.31L1391.62 1059.66L1376.07 1059.84Z" fill="var(--fill-0, white)"/>
<path id="Vector_20" d="M1407.17 1059.84L1429.05 1039.33H1444.41L1422.72 1059.66L1407.17 1059.84Z" fill="var(--fill-0, white)"/>
<g id="Group_9" opacity="0.06">
<path id="Vector_21" d="M1670.82 1052.28H1848.51C1850.26 1052.28 1851.99 1051.96 1853.61 1051.33C1855.22 1050.71 1856.69 1049.79 1857.92 1048.63L1877.19 1030.57C1878.42 1029.41 1879.41 1028.03 1880.07 1026.52C1880.74 1025 1881.09 1023.38 1881.09 1021.74V840.179C1881.09 829.057 1866.75 823.489 1858.36 831.353L1661.45 1015.98C1658.96 1018.31 1657.56 1021.47 1657.55 1024.77L1657.51 1039.77C1657.5 1041.41 1657.84 1043.04 1658.51 1044.56C1659.18 1046.07 1660.15 1047.46 1661.39 1048.62C1662.63 1049.78 1664.1 1050.7 1665.71 1051.33C1667.33 1051.96 1669.07 1052.29 1670.82 1052.28V1052.28Z" fill="var(--fill-0, white)"/>
</g>
<g id="Vector_22" filter="url(#filter5_d_4024_8919)">
<path d="M1881.09 1018.3V767.932L1877.54 764.602V967.339L1867.51 976.744V1018.45L1881.09 1018.3Z" fill="url(#paint5_linear_4024_8919)"/>
</g>
<g id="Vector_23" filter="url(#filter6_d_4024_8919)">
<path d="M1880.9 764.693L1877.44 761.453V758.933L1880.9 762.173V764.693Z" fill="url(#paint6_linear_4024_8919)"/>
</g>
<g id="Vector_24" filter="url(#filter7_d_4024_8919)">
<path d="M1880.9 758.573L1877.44 755.334V752.814L1880.9 756.054V758.573Z" fill="url(#paint7_linear_4024_8919)"/>
</g>
<g id="Group_10" opacity="0.14">
<path id="Vector_25" d="M976.078 1052.67L975.264 1051.9L1257.4 787.369H1497.91L1654.06 640.963H1867.46V642.043H1654.54L1498.39 788.449H1257.88L976.078 1052.67Z" fill="var(--fill-0, white)"/>
</g>
<g id="Group_11" opacity="0.14">
<path id="Vector_26" d="M1158.37 1048.89L1157.56 1048.12L1296.87 917.509V878.75L1297.04 878.592L1393.9 787.887L1394.72 788.65L1298.02 879.197V917.955L1158.37 1048.89Z" fill="var(--fill-0, white)"/>
</g>
<g id="Group_12" opacity="0.14">
<path id="Vector_27" d="M1495.87 1034.67L1495.06 1033.91L1594.85 940.343L1505.87 856.92L1736.03 641.121L1736.85 641.885L1507.5 856.92L1596.48 940.343L1495.87 1034.67Z" fill="var(--fill-0, white)"/>
</g>
<g id="Group_13" opacity="0.14">
<path id="Vector_28" d="M1477.08 986.43H1224.75V985.35H1476.61L1560.14 907.034L1560.95 907.797L1477.08 986.43Z" fill="var(--fill-0, white)"/>
</g>
<g id="Group_14" opacity="0.14">
<path id="Vector_29" d="M1718.7 1064.34H1717.55V797.584L1860.34 663.708L1861.15 664.471L1718.7 798.03V1064.34Z" fill="var(--fill-0, white)"/>
</g>
<g id="Group_15" opacity="0.03">
<path id="Vector_30" d="M1593.17 991.635L1471.93 877.962C1471.02 877.112 1469.79 876.634 1468.51 876.634H1254.66C1253.37 876.634 1252.14 877.112 1251.23 877.962L1130.1 991.537C1129.42 992.172 1128.96 992.981 1128.78 993.861C1128.59 994.741 1128.69 995.654 1129.05 996.483C1129.42 997.311 1130.04 998.02 1130.84 998.518C1131.63 999.017 1132.57 999.283 1133.52 999.283H1589.64C1590.59 999.283 1591.51 999.024 1592.3 998.537C1593.09 998.05 1593.71 997.358 1594.08 996.545C1594.46 995.731 1594.57 994.833 1594.41 993.961C1594.25 993.088 1593.81 992.28 1593.17 991.635V991.635Z" fill="var(--fill-0, white)"/>
</g>
<g id="Vector_31" filter="url(#filter8_d_4024_8919)">
<path d="M1836.32 1013.59H1834.68V1030.69H1836.32V1013.59Z" fill="url(#paint8_linear_4024_8919)"/>
</g>
<g id="Vector_32" filter="url(#filter9_d_4024_8919)">
<path d="M1826.38 1021.37V1022.91H1844.62V1021.37H1826.38Z" fill="url(#paint9_linear_4024_8919)"/>
</g>
<path id="Vector_33" d="M1061.47 1079.82L1028.07 1048.51H591.199L567.398 1026.19H312.875L272.182 1064.34H47.6031L18.427 1036.99V745.796L71.2126 696.304V539.91H0V1079.82H1061.47Z" fill="var(--fill-0, #FF9406)"/>
<path id="Vector_34" d="M574.884 1059.84L553.002 1039.33H537.646L559.336 1059.66L574.884 1059.84Z" fill="var(--fill-0, white)"/>
<path id="Vector_35" d="M543.788 1059.84L521.906 1039.33H506.55L528.24 1059.66L543.788 1059.84Z" fill="var(--fill-0, white)"/>
<path id="Vector_36" d="M512.692 1059.84L490.81 1039.33H475.455L497.145 1059.66L512.692 1059.84Z" fill="var(--fill-0, white)"/>
<g id="Group_16" opacity="0.06">
<path id="Vector_37" d="M249.045 1052.28H71.3508C69.6025 1052.28 67.8714 1051.96 66.2562 1051.33C64.6411 1050.71 63.1737 1049.79 61.9377 1048.63L42.6738 1030.57C41.4373 1029.41 40.4564 1028.03 39.7872 1026.52C39.118 1025 38.7735 1023.38 38.7734 1021.74V840.179C38.7734 829.057 53.1119 823.489 61.5001 831.353L258.412 1015.98C260.899 1018.31 262.302 1021.47 262.312 1024.77L262.354 1039.77C262.36 1041.41 262.02 1043.04 261.353 1044.56C260.687 1046.07 259.707 1047.46 258.471 1048.62C257.234 1049.78 255.765 1050.7 254.147 1051.33C252.53 1051.96 250.796 1052.29 249.045 1052.28V1052.28Z" fill="var(--fill-0, white)"/>
</g>
<g id="Vector_38" filter="url(#filter10_d_4024_8919)">
<path d="M38.7734 1018.3V767.932L42.3245 764.602V967.339L52.3557 976.744V1018.45L38.7734 1018.3Z" fill="url(#paint10_linear_4024_8919)"/>
</g>
<g id="Vector_39" filter="url(#filter11_d_4024_8919)">
<path d="M38.9656 764.693L42.4206 761.453V758.933L38.9656 762.173V764.693Z" fill="url(#paint11_linear_4024_8919)"/>
</g>
<g id="Vector_40" filter="url(#filter12_d_4024_8919)">
<path d="M38.9656 758.573L42.4206 755.334V752.814L38.9656 756.054V758.573Z" fill="url(#paint12_linear_4024_8919)"/>
</g>
<g id="Group_17" opacity="0.14">
<path id="Vector_41" d="M943.784 1052.67L661.982 788.449H421.471L265.322 642.043H52.4019V640.963H265.798L421.947 787.369H662.458L944.598 1051.9L943.784 1052.67Z" fill="var(--fill-0, white)"/>
</g>
<g id="Group_18" opacity="0.14">
<path id="Vector_42" d="M761.487 1048.89L621.842 917.955V879.197L525.146 788.65L525.96 787.887L622.993 878.75V917.509L762.301 1048.12L761.487 1048.89Z" fill="var(--fill-0, white)"/>
</g>
<g id="Group_19" opacity="0.14">
<path id="Vector_43" d="M423.989 1034.67L323.386 940.343L412.361 856.92L183.014 641.885L183.828 641.121L413.989 856.92L413.582 857.301L325.014 940.343L424.803 1033.91L423.989 1034.67Z" fill="var(--fill-0, white)"/>
</g>
<g id="Group_20" opacity="0.14">
<path id="Vector_44" d="M695.112 986.43H442.778L442.609 986.272L358.912 907.797L359.726 907.034L443.254 985.35H695.112V986.43Z" fill="var(--fill-0, white)"/>
</g>
<g id="Group_21" opacity="0.14">
<path id="Vector_45" d="M202.313 1064.34H201.161V798.03L58.7131 664.471L59.527 663.708L202.313 797.584V1064.34Z" fill="var(--fill-0, white)"/>
</g>
<g id="Group_22" opacity="0.03">
<path id="Vector_46" d="M326.695 991.635L447.933 877.962C448.841 877.112 450.071 876.634 451.354 876.634H665.206C666.489 876.634 667.72 877.112 668.627 877.962L789.761 991.537C790.438 992.172 790.898 992.981 791.084 993.861C791.27 994.741 791.174 995.654 790.808 996.483C790.441 997.311 789.821 998.02 789.025 998.518C788.23 999.017 787.294 999.283 786.337 999.283H330.219C329.274 999.283 328.351 999.024 327.561 998.537C326.772 998.05 326.152 997.358 325.777 996.545C325.402 995.731 325.29 994.833 325.453 993.961C325.616 993.088 326.048 992.28 326.695 991.635V991.635Z" fill="var(--fill-0, white)"/>
</g>
<g id="Vector_47" filter="url(#filter13_d_4024_8919)">
<path d="M83.5445 1030.69H85.1826V1013.59H83.5445V1030.69Z" fill="url(#paint13_linear_4024_8919)"/>
</g>
<g id="Vector_48" filter="url(#filter14_d_4024_8919)">
<path d="M75.2437 1021.37V1022.91H93.4787V1021.37H75.2437Z" fill="url(#paint14_linear_4024_8919)"/>
</g>
<path id="Vector_49" d="M1061.47 0L1028.07 31.3148H591.199L567.398 53.6311H312.875L272.182 15.4774H47.6031L18.427 42.8329V334.024L71.2126 383.516V539.91H0V0H1061.47Z" fill="var(--fill-0, #FF9406)"/>
<path id="Vector_50" d="M574.884 19.9767L553.002 40.4932H537.646L559.336 20.1566L574.884 19.9767Z" fill="var(--fill-0, white)"/>
<path id="Vector_51" d="M543.788 19.9767L521.906 40.4932H506.55L528.24 20.1566L543.788 19.9767Z" fill="var(--fill-0, white)"/>
<path id="Vector_52" d="M512.692 19.9767L490.81 40.4932H475.455L497.145 20.1566L512.692 19.9767Z" fill="var(--fill-0, white)"/>
<g id="Group_23" opacity="0.06">
<path id="Vector_53" d="M249.045 27.5354H71.3508C69.6025 27.5355 67.8714 27.8585 66.2562 28.4859C64.6411 29.1134 63.1737 30.0331 61.9377 31.1924L42.6738 49.2542C41.4373 50.413 40.4564 51.7889 39.7872 53.3033C39.118 54.8176 38.7735 56.4407 38.7734 58.0799V239.641C38.7734 250.763 53.1119 256.331 61.5001 248.467L258.412 63.8426C260.899 61.5095 262.302 58.3483 262.312 55.0492L262.354 40.0505C262.36 38.4086 262.02 36.7818 261.353 35.2634C260.687 33.745 259.707 32.3648 258.471 31.2021C257.234 30.0394 255.765 29.117 254.147 28.4878C252.53 27.8586 250.796 27.535 249.045 27.5354V27.5354Z" fill="var(--fill-0, white)"/>
</g>
<g id="Vector_54" filter="url(#filter15_d_4024_8919)">
<path d="M38.7734 61.5245V311.888L42.3245 315.217V112.481L52.3557 103.08V61.3697L38.7734 61.5245Z" fill="url(#paint15_linear_4024_8919)"/>
</g>
<g id="Vector_55" filter="url(#filter16_d_4024_8919)">
<path d="M38.9656 315.127L42.4206 318.367V320.887L38.9656 317.647V315.127Z" fill="url(#paint16_linear_4024_8919)"/>
</g>
<g id="Vector_56" filter="url(#filter17_d_4024_8919)">
<path d="M38.9656 321.246L42.4206 324.486V327.005L38.9656 323.766V321.246Z" fill="url(#paint17_linear_4024_8919)"/>
</g>
<g id="Group_24" opacity="0.14">
<path id="Vector_57" d="M265.798 438.857H52.4019V437.777H265.322L421.471 291.371H661.982L943.784 27.1538L944.598 27.9169L662.458 292.451H421.947L265.798 438.857Z" fill="var(--fill-0, white)"/>
</g>
<g id="Group_25" opacity="0.14">
<path id="Vector_58" d="M525.96 291.933L525.146 291.17L621.842 200.623V161.865L761.487 30.9333L762.301 31.6964L622.993 162.311V201.07L525.96 291.933Z" fill="var(--fill-0, white)"/>
</g>
<g id="Group_26" opacity="0.14">
<path id="Vector_59" d="M183.828 438.698L183.014 437.935L412.361 222.9L323.386 139.477L423.989 45.1508L424.803 45.9139L325.014 139.477L413.989 222.9L413.582 223.282L183.828 438.698Z" fill="var(--fill-0, white)"/>
</g>
<g id="Group_27" opacity="0.14">
<path id="Vector_60" d="M359.726 172.786L358.912 172.022L442.778 93.39H695.112V94.4698H443.254L359.726 172.786Z" fill="var(--fill-0, white)"/>
</g>
<g id="Group_28" opacity="0.14">
<path id="Vector_61" d="M59.527 416.112L58.7131 415.349L201.161 281.79V15.4774H202.313V282.236L59.527 416.112Z" fill="var(--fill-0, white)"/>
</g>
<g id="Group_29" opacity="0.03">
<path id="Vector_62" d="M326.695 88.1853L447.933 201.858C448.841 202.708 450.071 203.186 451.354 203.186H665.206C666.489 203.186 667.72 202.708 668.627 201.858L789.761 88.2825C790.438 87.6475 790.898 86.8389 791.084 85.9587C791.27 85.0786 791.174 84.1664 790.808 83.3375C790.441 82.5085 789.821 81.8 789.025 81.3015C788.23 80.803 787.294 80.5368 786.337 80.5366H330.219C329.274 80.5369 328.351 80.7964 327.561 81.2831C326.772 81.7697 326.152 82.4623 325.777 83.2754C325.402 84.0885 325.29 84.9866 325.453 85.8591C325.616 86.7315 326.048 87.5401 326.695 88.1853V88.1853Z" fill="var(--fill-0, white)"/>
</g>
<g id="Vector_63" filter="url(#filter18_d_4024_8919)">
<path d="M83.5445 66.2289H85.1826V49.1318H83.5445V66.2289Z" fill="url(#paint18_linear_4024_8919)"/>
</g>
<g id="Vector_64" filter="url(#filter19_d_4024_8919)">
<path d="M93.4785 58.447V56.9101H75.2435V58.447H93.4785Z" fill="url(#paint19_linear_4024_8919)"/>
</g>
<g id="Group_30" opacity="0.51">
<path id="Vector_65" d="M0.19165 361.714L37.3489 396.549V465.222L46.0249 473.361V540.09H0.19165V361.714Z" fill="var(--fill-0, #A55137)"/>
<path id="Vector_66" d="M487.19 0.17995L450.805 34.2987H335.333L309.078 9.67877H33.2069L9.09826 32.2866V125.079L0.330089 133.297V0.17995H487.19Z" fill="var(--fill-0, #A55137)"/>
<path id="Vector_67" d="M916.113 0.205145L900.784 14.5775H882L897.356 0.17995L916.113 0.205145Z" fill="var(--fill-0, #A55137)"/>
<path id="Vector_68" d="M885.401 0.205145L870.072 14.5775H851.288L866.644 0.17995L885.401 0.205145Z" fill="var(--fill-0, #A55137)"/>
<path id="Vector_69" d="M854.69 0.205145L839.361 14.5775H820.577L835.932 0.17995L854.69 0.205145Z" fill="var(--fill-0, #A55137)"/>
<path id="Vector_70" d="M823.978 0.205145L808.649 14.5775H789.865L805.221 0.17995L823.978 0.205145Z" fill="var(--fill-0, #A55137)"/>
<path id="Vector_71" d="M793.266 0.205145L777.937 14.5775H759.153L774.509 0.17995L793.266 0.205145Z" fill="var(--fill-0, #A55137)"/>
<path id="Vector_72" d="M762.555 0.205145L747.226 14.5775H728.442L743.797 0.17995L762.555 0.205145Z" fill="var(--fill-0, #A55137)"/>
<path id="Vector_73" d="M731.843 0.205145L716.514 14.5775H697.73L713.086 0.17995L731.843 0.205145Z" fill="var(--fill-0, #A55137)"/>
<path id="Vector_74" d="M701.131 0.205145L685.802 14.5775H667.018L682.374 0.17995L701.131 0.205145Z" fill="var(--fill-0, #A55137)"/>
<path id="Vector_75" d="M670.42 0.205145L655.091 14.5775H636.307L651.663 0.17995L670.42 0.205145Z" fill="var(--fill-0, #A55137)"/>
</g>
<g id="Group_31" opacity="0.51">
<path id="Vector_76" d="M0.19165 718.465L37.3489 683.63V614.957L46.0249 606.819V540.09H0.19165V718.465Z" fill="var(--fill-0, #A55137)"/>
<path id="Vector_77" d="M487.19 1080L450.804 1045.88H335.332L309.078 1070.5H33.2067L9.09801 1047.89V955.101L0.329834 946.88V1080H487.19Z" fill="var(--fill-0, #A55137)"/>
<path id="Vector_78" d="M916.113 1079.97L900.784 1065.6H882L897.356 1080L916.113 1079.97Z" fill="var(--fill-0, #A55137)"/>
<path id="Vector_79" d="M885.401 1079.97L870.072 1065.6H851.288L866.644 1080L885.401 1079.97Z" fill="var(--fill-0, #A55137)"/>
<path id="Vector_80" d="M854.69 1079.97L839.361 1065.6H820.577L835.932 1080L854.69 1079.97Z" fill="var(--fill-0, #A55137)"/>
<path id="Vector_81" d="M823.978 1079.97L808.649 1065.6H789.865L805.221 1080L823.978 1079.97Z" fill="var(--fill-0, #A55137)"/>
<path id="Vector_82" d="M793.266 1079.97L777.937 1065.6H759.153L774.509 1080L793.266 1079.97Z" fill="var(--fill-0, #A55137)"/>
<path id="Vector_83" d="M762.555 1079.97L747.226 1065.6H728.442L743.797 1080L762.555 1079.97Z" fill="var(--fill-0, #A55137)"/>
<path id="Vector_84" d="M731.843 1079.97L716.514 1065.6H697.73L713.086 1080L731.843 1079.97Z" fill="var(--fill-0, #A55137)"/>
<path id="Vector_85" d="M701.131 1079.97L685.802 1065.6H667.018L682.374 1080L701.131 1079.97Z" fill="var(--fill-0, #A55137)"/>
<path id="Vector_86" d="M670.42 1079.97L655.091 1065.6H636.307L651.663 1080L670.42 1079.97Z" fill="var(--fill-0, #A55137)"/>
</g>
<g id="Group_32" opacity="0.51">
<path id="Vector_87" d="M1920 718.465L1882.84 683.63V614.957L1874.16 606.819V540.09H1920V718.465Z" fill="var(--fill-0, #A55137)"/>
<path id="Vector_88" d="M1433 1080L1469.39 1045.88H1584.86L1611.11 1070.5H1886.99L1911.09 1047.89V955.101L1919.86 946.88V1080H1433Z" fill="var(--fill-0, #A55137)"/>
<path id="Vector_89" d="M1004.08 1079.97L1019.41 1065.6H1038.19L1022.84 1080L1004.08 1079.97Z" fill="var(--fill-0, #A55137)"/>
<path id="Vector_90" d="M1034.79 1079.97L1050.12 1065.6H1068.9L1053.55 1080L1034.79 1079.97Z" fill="var(--fill-0, #A55137)"/>
<path id="Vector_91" d="M1065.5 1079.97L1080.83 1065.6H1099.61L1084.26 1080L1065.5 1079.97Z" fill="var(--fill-0, #A55137)"/>
<path id="Vector_92" d="M1096.21 1079.97L1111.54 1065.6H1130.33L1114.97 1080L1096.21 1079.97Z" fill="var(--fill-0, #A55137)"/>
<path id="Vector_93" d="M1126.93 1079.97L1142.25 1065.6H1161.04L1145.68 1080L1126.93 1079.97Z" fill="var(--fill-0, #A55137)"/>
<path id="Vector_94" d="M1157.64 1079.97L1172.97 1065.6H1191.75L1176.39 1080L1157.64 1079.97Z" fill="var(--fill-0, #A55137)"/>
<path id="Vector_95" d="M1188.35 1079.97L1203.68 1065.6H1222.46L1207.11 1080L1188.35 1079.97Z" fill="var(--fill-0, #A55137)"/>
<path id="Vector_96" d="M1219.06 1079.97L1234.39 1065.6H1253.17L1237.82 1080L1219.06 1079.97Z" fill="var(--fill-0, #A55137)"/>
<path id="Vector_97" d="M1249.77 1079.97L1265.1 1065.6H1283.88L1268.53 1080L1249.77 1079.97Z" fill="var(--fill-0, #A55137)"/>
</g>
<g id="Group_33" opacity="0.51">
<path id="Vector_98" d="M1920 361.714L1882.84 396.549V465.222L1874.16 473.361V540.09H1920V361.714Z" fill="var(--fill-0, #A55137)"/>
<path id="Vector_99" d="M1433 0.17995L1469.39 34.2987H1584.86L1611.11 9.67877H1886.99L1911.09 32.2866V125.079L1919.86 133.297V0.17995H1433Z" fill="var(--fill-0, #A55137)"/>
<path id="Vector_100" d="M1004.08 0.205172L1019.41 14.5776H1038.19L1022.84 0.179976L1004.08 0.205172Z" fill="var(--fill-0, #A55137)"/>
<path id="Vector_101" d="M1034.79 0.205145L1050.12 14.5775H1068.9L1053.55 0.17995L1034.79 0.205145Z" fill="var(--fill-0, #A55137)"/>
<path id="Vector_102" d="M1065.5 0.205145L1080.83 14.5775H1099.62L1084.26 0.17995L1065.5 0.205145Z" fill="var(--fill-0, #A55137)"/>
<path id="Vector_103" d="M1096.21 0.205145L1111.54 14.5775H1130.33L1114.97 0.17995L1096.21 0.205145Z" fill="var(--fill-0, #A55137)"/>
<path id="Vector_104" d="M1126.93 0.205145L1142.25 14.5775H1161.04L1145.68 0.17995L1126.93 0.205145Z" fill="var(--fill-0, #A55137)"/>
<path id="Vector_105" d="M1157.64 0.205145L1172.97 14.5775H1191.75L1176.39 0.17995L1157.64 0.205145Z" fill="var(--fill-0, #A55137)"/>
<path id="Vector_106" d="M1188.35 0.205145L1203.68 14.5775H1222.46L1207.11 0.17995L1188.35 0.205145Z" fill="var(--fill-0, #A55137)"/>
<path id="Vector_107" d="M1219.06 0.205145L1234.39 14.5775H1253.17L1237.82 0.17995L1219.06 0.205145Z" fill="var(--fill-0, #A55137)"/>
<path id="Vector_108" d="M1249.77 0.205145L1265.1 14.5775H1283.88L1268.53 0.17995L1249.77 0.205145Z" fill="var(--fill-0, #A55137)"/>
</g>
</g>
<defs>
<filter id="filter0_d_4024_8919" x="1857.51" y="51.3697" width="33.5785" height="273.848" filterUnits="userSpaceOnUse" color-interpolation-filters="sRGB">
<feFlood flood-opacity="0" result="BackgroundImageFix"/>
<feColorMatrix in="SourceAlpha" type="matrix" values="0 0 0 0 0 0 0 0 0 0 0 0 0 0 0 0 0 0 127 0" result="hardAlpha"/>
<feOffset/>
<feGaussianBlur stdDeviation="5"/>
<feComposite in2="hardAlpha" operator="out"/>
<feColorMatrix type="matrix" values="0 0 0 0 1 0 0 0 0 0.698039 0 0 0 0 0 0 0 0 0.6 0"/>
<feBlend mode="normal" in2="BackgroundImageFix" result="effect1_dropShadow_4024_8919"/>
<feBlend mode="normal" in="SourceGraphic" in2="effect1_dropShadow_4024_8919" result="shape"/>
</filter>
<filter id="filter1_d_4024_8919" x="1867.44" y="305.127" width="23.4551" height="25.759" filterUnits="userSpaceOnUse" color-interpolation-filters="sRGB">
<feFlood flood-opacity="0" result="BackgroundImageFix"/>
<feColorMatrix in="SourceAlpha" type="matrix" values="0 0 0 0 0 0 0 0 0 0 0 0 0 0 0 0 0 0 127 0" result="hardAlpha"/>
<feOffset/>
<feGaussianBlur stdDeviation="5"/>
<feComposite in2="hardAlpha" operator="out"/>
<feColorMatrix type="matrix" values="0 0 0 0 1 0 0 0 0 0.698039 0 0 0 0 0 0 0 0 0.6 0"/>
<feBlend mode="normal" in2="BackgroundImageFix" result="effect1_dropShadow_4024_8919"/>
<feBlend mode="normal" in="SourceGraphic" in2="effect1_dropShadow_4024_8919" result="shape"/>
</filter>
<filter id="filter2_d_4024_8919" x="1867.44" y="311.246" width="23.4551" height="25.759" filterUnits="userSpaceOnUse" color-interpolation-filters="sRGB">
<feFlood flood-opacity="0" result="BackgroundImageFix"/>
<feColorMatrix in="SourceAlpha" type="matrix" values="0 0 0 0 0 0 0 0 0 0 0 0 0 0 0 0 0 0 127 0" result="hardAlpha"/>
<feOffset/>
<feGaussianBlur stdDeviation="5"/>
<feComposite in2="hardAlpha" operator="out"/>
<feColorMatrix type="matrix" values="0 0 0 0 1 0 0 0 0 0.698039 0 0 0 0 0 0 0 0 0.6 0"/>
<feBlend mode="normal" in2="BackgroundImageFix" result="effect1_dropShadow_4024_8919"/>
<feBlend mode="normal" in="SourceGraphic" in2="effect1_dropShadow_4024_8919" result="shape"/>
</filter>
<filter id="filter3_d_4024_8919" x="1824.68" y="39.1318" width="21.6421" height="37.0971" filterUnits="userSpaceOnUse" color-interpolation-filters="sRGB">
<feFlood flood-opacity="0" result="BackgroundImageFix"/>
<feColorMatrix in="SourceAlpha" type="matrix" values="0 0 0 0 0 0 0 0 0 0 0 0 0 0 0 0 0 0 127 0" result="hardAlpha"/>
<feOffset/>
<feGaussianBlur stdDeviation="5"/>
<feComposite in2="hardAlpha" operator="out"/>
<feColorMatrix type="matrix" values="0 0 0 0 1 0 0 0 0 0.698039 0 0 0 0 0 0 0 0 0.6 0"/>
<feBlend mode="normal" in2="BackgroundImageFix" result="effect1_dropShadow_4024_8919"/>
<feBlend mode="normal" in="SourceGraphic" in2="effect1_dropShadow_4024_8919" result="shape"/>
</filter>
<filter id="filter4_d_4024_8919" x="1816.38" y="46.9101" width="38.235" height="21.5369" filterUnits="userSpaceOnUse" color-interpolation-filters="sRGB">
<feFlood flood-opacity="0" result="BackgroundImageFix"/>
<feColorMatrix in="SourceAlpha" type="matrix" values="0 0 0 0 0 0 0 0 0 0 0 0 0 0 0 0 0 0 127 0" result="hardAlpha"/>
<feOffset/>
<feGaussianBlur stdDeviation="5"/>
<feComposite in2="hardAlpha" operator="out"/>
<feColorMatrix type="matrix" values="0 0 0 0 1 0 0 0 0 0.698039 0 0 0 0 0 0 0 0 0.6 0"/>
<feBlend mode="normal" in2="BackgroundImageFix" result="effect1_dropShadow_4024_8919"/>
<feBlend mode="normal" in="SourceGraphic" in2="effect1_dropShadow_4024_8919" result="shape"/>
</filter>
<filter id="filter5_d_4024_8919" x="1857.51" y="754.602" width="33.5785" height="273.848" filterUnits="userSpaceOnUse" color-interpolation-filters="sRGB">
<feFlood flood-opacity="0" result="BackgroundImageFix"/>
<feColorMatrix in="SourceAlpha" type="matrix" values="0 0 0 0 0 0 0 0 0 0 0 0 0 0 0 0 0 0 127 0" result="hardAlpha"/>
<feOffset/>
<feGaussianBlur stdDeviation="5"/>
<feComposite in2="hardAlpha" operator="out"/>
<feColorMatrix type="matrix" values="0 0 0 0 1 0 0 0 0 0.698039 0 0 0 0 0 0 0 0 0.6 0"/>
<feBlend mode="normal" in2="BackgroundImageFix" result="effect1_dropShadow_4024_8919"/>
<feBlend mode="normal" in="SourceGraphic" in2="effect1_dropShadow_4024_8919" result="shape"/>
</filter>
<filter id="filter6_d_4024_8919" x="1867.44" y="748.933" width="23.4551" height="25.759" filterUnits="userSpaceOnUse" color-interpolation-filters="sRGB">
<feFlood flood-opacity="0" result="BackgroundImageFix"/>
<feColorMatrix in="SourceAlpha" type="matrix" values="0 0 0 0 0 0 0 0 0 0 0 0 0 0 0 0 0 0 127 0" result="hardAlpha"/>
<feOffset/>
<feGaussianBlur stdDeviation="5"/>
<feComposite in2="hardAlpha" operator="out"/>
<feColorMatrix type="matrix" values="0 0 0 0 1 0 0 0 0 0.698039 0 0 0 0 0 0 0 0 0.6 0"/>
<feBlend mode="normal" in2="BackgroundImageFix" result="effect1_dropShadow_4024_8919"/>
<feBlend mode="normal" in="SourceGraphic" in2="effect1_dropShadow_4024_8919" result="shape"/>
</filter>
<filter id="filter7_d_4024_8919" x="1867.44" y="742.814" width="23.4551" height="25.759" filterUnits="userSpaceOnUse" color-interpolation-filters="sRGB">
<feFlood flood-opacity="0" result="BackgroundImageFix"/>
<feColorMatrix in="SourceAlpha" type="matrix" values="0 0 0 0 0 0 0 0 0 0 0 0 0 0 0 0 0 0 127 0" result="hardAlpha"/>
<feOffset/>
<feGaussianBlur stdDeviation="5"/>
<feComposite in2="hardAlpha" operator="out"/>
<feColorMatrix type="matrix" values="0 0 0 0 1 0 0 0 0 0.698039 0 0 0 0 0 0 0 0 0.6 0"/>
<feBlend mode="normal" in2="BackgroundImageFix" result="effect1_dropShadow_4024_8919"/>
<feBlend mode="normal" in="SourceGraphic" in2="effect1_dropShadow_4024_8919" result="shape"/>
</filter>
<filter id="filter8_d_4024_8919" x="1824.68" y="1003.59" width="21.6421" height="37.0971" filterUnits="userSpaceOnUse" color-interpolation-filters="sRGB">
<feFlood flood-opacity="0" result="BackgroundImageFix"/>
<feColorMatrix in="SourceAlpha" type="matrix" values="0 0 0 0 0 0 0 0 0 0 0 0 0 0 0 0 0 0 127 0" result="hardAlpha"/>
<feOffset/>
<feGaussianBlur stdDeviation="5"/>
<feComposite in2="hardAlpha" operator="out"/>
<feColorMatrix type="matrix" values="0 0 0 0 1 0 0 0 0 0.698039 0 0 0 0 0 0 0 0 0.6 0"/>
<feBlend mode="normal" in2="BackgroundImageFix" result="effect1_dropShadow_4024_8919"/>
<feBlend mode="normal" in="SourceGraphic" in2="effect1_dropShadow_4024_8919" result="shape"/>
</filter>
<filter id="filter9_d_4024_8919" x="1816.38" y="1011.37" width="38.235" height="21.5406" filterUnits="userSpaceOnUse" color-interpolation-filters="sRGB">
<feFlood flood-opacity="0" result="BackgroundImageFix"/>
<feColorMatrix in="SourceAlpha" type="matrix" values="0 0 0 0 0 0 0 0 0 0 0 0 0 0 0 0 0 0 127 0" result="hardAlpha"/>
<feOffset/>
<feGaussianBlur stdDeviation="5"/>
<feComposite in2="hardAlpha" operator="out"/>
<feColorMatrix type="matrix" values="0 0 0 0 1 0 0 0 0 0.698039 0 0 0 0 0 0 0 0 0.6 0"/>
<feBlend mode="normal" in2="BackgroundImageFix" result="effect1_dropShadow_4024_8919"/>
<feBlend mode="normal" in="SourceGraphic" in2="effect1_dropShadow_4024_8919" result="shape"/>
</filter>
<filter id="filter10_d_4024_8919" x="28.7734" y="754.602" width="33.5822" height="273.848" filterUnits="userSpaceOnUse" color-interpolation-filters="sRGB">
<feFlood flood-opacity="0" result="BackgroundImageFix"/>
<feColorMatrix in="SourceAlpha" type="matrix" values="0 0 0 0 0 0 0 0 0 0 0 0 0 0 0 0 0 0 127 0" result="hardAlpha"/>
<feOffset/>
<feGaussianBlur stdDeviation="5"/>
<feComposite in2="hardAlpha" operator="out"/>
<feColorMatrix type="matrix" values="0 0 0 0 1 0 0 0 0 0.698039 0 0 0 0 0 0 0 0 0.6 0"/>
<feBlend mode="normal" in2="BackgroundImageFix" result="effect1_dropShadow_4024_8919"/>
<feBlend mode="normal" in="SourceGraphic" in2="effect1_dropShadow_4024_8919" result="shape"/>
</filter>
<filter id="filter11_d_4024_8919" x="28.9656" y="748.933" width="23.4551" height="25.759" filterUnits="userSpaceOnUse" color-interpolation-filters="sRGB">
<feFlood flood-opacity="0" result="BackgroundImageFix"/>
<feColorMatrix in="SourceAlpha" type="matrix" values="0 0 0 0 0 0 0 0 0 0 0 0 0 0 0 0 0 0 127 0" result="hardAlpha"/>
<feOffset/>
<feGaussianBlur stdDeviation="5"/>
<feComposite in2="hardAlpha" operator="out"/>
<feColorMatrix type="matrix" values="0 0 0 0 1 0 0 0 0 0.698039 0 0 0 0 0 0 0 0 0.6 0"/>
<feBlend mode="normal" in2="BackgroundImageFix" result="effect1_dropShadow_4024_8919"/>
<feBlend mode="normal" in="SourceGraphic" in2="effect1_dropShadow_4024_8919" result="shape"/>
</filter>
<filter id="filter12_d_4024_8919" x="28.9656" y="742.814" width="23.4551" height="25.759" filterUnits="userSpaceOnUse" color-interpolation-filters="sRGB">
<feFlood flood-opacity="0" result="BackgroundImageFix"/>
<feColorMatrix in="SourceAlpha" type="matrix" values="0 0 0 0 0 0 0 0 0 0 0 0 0 0 0 0 0 0 127 0" result="hardAlpha"/>
<feOffset/>
<feGaussianBlur stdDeviation="5"/>
<feComposite in2="hardAlpha" operator="out"/>
<feColorMatrix type="matrix" values="0 0 0 0 1 0 0 0 0 0.698039 0 0 0 0 0 0 0 0 0.6 0"/>
<feBlend mode="normal" in2="BackgroundImageFix" result="effect1_dropShadow_4024_8919"/>
<feBlend mode="normal" in="SourceGraphic" in2="effect1_dropShadow_4024_8919" result="shape"/>
</filter>
<filter id="filter13_d_4024_8919" x="73.5445" y="1003.59" width="21.6381" height="37.0972" filterUnits="userSpaceOnUse" color-interpolation-filters="sRGB">
<feFlood flood-opacity="0" result="BackgroundImageFix"/>
<feColorMatrix in="SourceAlpha" type="matrix" values="0 0 0 0 0 0 0 0 0 0 0 0 0 0 0 0 0 0 127 0" result="hardAlpha"/>
<feOffset/>
<feGaussianBlur stdDeviation="5"/>
<feComposite in2="hardAlpha" operator="out"/>
<feColorMatrix type="matrix" values="0 0 0 0 1 0 0 0 0 0.698039 0 0 0 0 0 0 0 0 0.6 0"/>
<feBlend mode="normal" in2="BackgroundImageFix" result="effect1_dropShadow_4024_8919"/>
<feBlend mode="normal" in="SourceGraphic" in2="effect1_dropShadow_4024_8919" result="shape"/>
</filter>
<filter id="filter14_d_4024_8919" x="65.2437" y="1011.37" width="38.235" height="21.5405" filterUnits="userSpaceOnUse" color-interpolation-filters="sRGB">
<feFlood flood-opacity="0" result="BackgroundImageFix"/>
<feColorMatrix in="SourceAlpha" type="matrix" values="0 0 0 0 0 0 0 0 0 0 0 0 0 0 0 0 0 0 127 0" result="hardAlpha"/>
<feOffset/>
<feGaussianBlur stdDeviation="5"/>
<feComposite in2="hardAlpha" operator="out"/>
<feColorMatrix type="matrix" values="0 0 0 0 1 0 0 0 0 0.698039 0 0 0 0 0 0 0 0 0.6 0"/>
<feBlend mode="normal" in2="BackgroundImageFix" result="effect1_dropShadow_4024_8919"/>
<feBlend mode="normal" in="SourceGraphic" in2="effect1_dropShadow_4024_8919" result="shape"/>
</filter>
<filter id="filter15_d_4024_8919" x="28.7734" y="51.3697" width="33.5822" height="273.848" filterUnits="userSpaceOnUse" color-interpolation-filters="sRGB">
<feFlood flood-opacity="0" result="BackgroundImageFix"/>
<feColorMatrix in="SourceAlpha" type="matrix" values="0 0 0 0 0 0 0 0 0 0 0 0 0 0 0 0 0 0 127 0" result="hardAlpha"/>
<feOffset/>
<feGaussianBlur stdDeviation="5"/>
<feComposite in2="hardAlpha" operator="out"/>
<feColorMatrix type="matrix" values="0 0 0 0 1 0 0 0 0 0.698039 0 0 0 0 0 0 0 0 0.6 0"/>
<feBlend mode="normal" in2="BackgroundImageFix" result="effect1_dropShadow_4024_8919"/>
<feBlend mode="normal" in="SourceGraphic" in2="effect1_dropShadow_4024_8919" result="shape"/>
</filter>
<filter id="filter16_d_4024_8919" x="28.9656" y="305.127" width="23.4551" height="25.759" filterUnits="userSpaceOnUse" color-interpolation-filters="sRGB">
<feFlood flood-opacity="0" result="BackgroundImageFix"/>
<feColorMatrix in="SourceAlpha" type="matrix" values="0 0 0 0 0 0 0 0 0 0 0 0 0 0 0 0 0 0 127 0" result="hardAlpha"/>
<feOffset/>
<feGaussianBlur stdDeviation="5"/>
<feComposite in2="hardAlpha" operator="out"/>
<feColorMatrix type="matrix" values="0 0 0 0 1 0 0 0 0 0.698039 0 0 0 0 0 0 0 0 0.6 0"/>
<feBlend mode="normal" in2="BackgroundImageFix" result="effect1_dropShadow_4024_8919"/>
<feBlend mode="normal" in="SourceGraphic" in2="effect1_dropShadow_4024_8919" result="shape"/>
</filter>
<filter id="filter17_d_4024_8919" x="28.9656" y="311.246" width="23.4551" height="25.759" filterUnits="userSpaceOnUse" color-interpolation-filters="sRGB">
<feFlood flood-opacity="0" result="BackgroundImageFix"/>
<feColorMatrix in="SourceAlpha" type="matrix" values="0 0 0 0 0 0 0 0 0 0 0 0 0 0 0 0 0 0 127 0" result="hardAlpha"/>
<feOffset/>
<feGaussianBlur stdDeviation="5"/>
<feComposite in2="hardAlpha" operator="out"/>
<feColorMatrix type="matrix" values="0 0 0 0 1 0 0 0 0 0.698039 0 0 0 0 0 0 0 0 0.6 0"/>
<feBlend mode="normal" in2="BackgroundImageFix" result="effect1_dropShadow_4024_8919"/>
<feBlend mode="normal" in="SourceGraphic" in2="effect1_dropShadow_4024_8919" result="shape"/>
</filter>
<filter id="filter18_d_4024_8919" x="73.5445" y="39.1318" width="21.6381" height="37.0971" filterUnits="userSpaceOnUse" color-interpolation-filters="sRGB">
<feFlood flood-opacity="0" result="BackgroundImageFix"/>
<feColorMatrix in="SourceAlpha" type="matrix" values="0 0 0 0 0 0 0 0 0 0 0 0 0 0 0 0 0 0 127 0" result="hardAlpha"/>
<feOffset/>
<feGaussianBlur stdDeviation="5"/>
<feComposite in2="hardAlpha" operator="out"/>
<feColorMatrix type="matrix" values="0 0 0 0 1 0 0 0 0 0.698039 0 0 0 0 0 0 0 0 0.6 0"/>
<feBlend mode="normal" in2="BackgroundImageFix" result="effect1_dropShadow_4024_8919"/>
<feBlend mode="normal" in="SourceGraphic" in2="effect1_dropShadow_4024_8919" result="shape"/>
</filter>
<filter id="filter19_d_4024_8919" x="65.2435" y="46.9101" width="38.235" height="21.5369" filterUnits="userSpaceOnUse" color-interpolation-filters="sRGB">
<feFlood flood-opacity="0" result="BackgroundImageFix"/>
<feColorMatrix in="SourceAlpha" type="matrix" values="0 0 0 0 0 0 0 0 0 0 0 0 0 0 0 0 0 0 127 0" result="hardAlpha"/>
<feOffset/>
<feGaussianBlur stdDeviation="5"/>
<feComposite in2="hardAlpha" operator="out"/>
<feColorMatrix type="matrix" values="0 0 0 0 1 0 0 0 0 0.698039 0 0 0 0 0 0 0 0 0.6 0"/>
<feBlend mode="normal" in2="BackgroundImageFix" result="effect1_dropShadow_4024_8919"/>
<feBlend mode="normal" in="SourceGraphic" in2="effect1_dropShadow_4024_8919" result="shape"/>
</filter>
<linearGradient id="paint0_linear_4024_8919" x1="1867.51" y1="315.217" x2="1881.09" y2="315.217" gradientUnits="userSpaceOnUse">
<stop stop-color="#FFD802"/>
<stop offset="1" stop-color="#FFB200"/>
</linearGradient>
<linearGradient id="paint1_linear_4024_8919" x1="1877.44" y1="320.887" x2="1880.9" y2="320.887" gradientUnits="userSpaceOnUse">
<stop stop-color="#FFD802"/>
<stop offset="1" stop-color="#FFB200"/>
</linearGradient>
<linearGradient id="paint2_linear_4024_8919" x1="1877.44" y1="327.005" x2="1880.9" y2="327.005" gradientUnits="userSpaceOnUse">
<stop stop-color="#FFD802"/>
<stop offset="1" stop-color="#FFB200"/>
</linearGradient>
<linearGradient id="paint3_linear_4024_8919" x1="1834.68" y1="66.2289" x2="1836.32" y2="66.2289" gradientUnits="userSpaceOnUse">
<stop stop-color="#FFD802"/>
<stop offset="1" stop-color="#FFB200"/>
</linearGradient>
<linearGradient id="paint4_linear_4024_8919" x1="1826.38" y1="56.9101" x2="1826.38" y2="58.447" gradientUnits="userSpaceOnUse">
<stop stop-color="#FFD802"/>
<stop offset="1" stop-color="#FFB200"/>
</linearGradient>
<linearGradient id="paint5_linear_4024_8919" x1="1867.51" y1="1018.45" x2="1881.09" y2="1018.45" gradientUnits="userSpaceOnUse">
<stop stop-color="#FFD802"/>
<stop offset="1" stop-color="#FFB200"/>
</linearGradient>
<linearGradient id="paint6_linear_4024_8919" x1="1877.44" y1="764.693" x2="1880.9" y2="764.693" gradientUnits="userSpaceOnUse">
<stop stop-color="#FFD802"/>
<stop offset="1" stop-color="#FFB200"/>
</linearGradient>
<linearGradient id="paint7_linear_4024_8919" x1="1877.44" y1="758.573" x2="1880.9" y2="758.573" gradientUnits="userSpaceOnUse">
<stop stop-color="#FFD802"/>
<stop offset="1" stop-color="#FFB200"/>
</linearGradient>
<linearGradient id="paint8_linear_4024_8919" x1="1834.68" y1="1030.69" x2="1836.32" y2="1030.69" gradientUnits="userSpaceOnUse">
<stop stop-color="#FFD802"/>
<stop offset="1" stop-color="#FFB200"/>
</linearGradient>
<linearGradient id="paint9_linear_4024_8919" x1="1844.62" y1="1022.91" x2="1844.62" y2="1021.37" gradientUnits="userSpaceOnUse">
<stop stop-color="#FFD802"/>
<stop offset="1" stop-color="#FFB200"/>
</linearGradient>
<linearGradient id="paint10_linear_4024_8919" x1="38.7734" y1="1018.45" x2="52.3557" y2="1018.45" gradientUnits="userSpaceOnUse">
<stop stop-color="#FFD802"/>
<stop offset="1" stop-color="#FFB200"/>
</linearGradient>
<linearGradient id="paint11_linear_4024_8919" x1="38.9656" y1="764.693" x2="42.4206" y2="764.693" gradientUnits="userSpaceOnUse">
<stop stop-color="#FFD802"/>
<stop offset="1" stop-color="#FFB200"/>
</linearGradient>
<linearGradient id="paint12_linear_4024_8919" x1="38.9656" y1="758.573" x2="42.4206" y2="758.573" gradientUnits="userSpaceOnUse">
<stop stop-color="#FFD802"/>
<stop offset="1" stop-color="#FFB200"/>
</linearGradient>
<linearGradient id="paint13_linear_4024_8919" x1="85.1826" y1="1013.59" x2="83.5445" y2="1013.59" gradientUnits="userSpaceOnUse">
<stop stop-color="#FFD802"/>
<stop offset="1" stop-color="#FFB200"/>
</linearGradient>
<linearGradient id="paint14_linear_4024_8919" x1="93.4787" y1="1022.91" x2="93.4787" y2="1021.37" gradientUnits="userSpaceOnUse">
<stop stop-color="#FFD802"/>
<stop offset="1" stop-color="#FFB200"/>
</linearGradient>
<linearGradient id="paint15_linear_4024_8919" x1="38.7734" y1="315.217" x2="52.3557" y2="315.217" gradientUnits="userSpaceOnUse">
<stop stop-color="#FFD802"/>
<stop offset="1" stop-color="#FFB200"/>
</linearGradient>
<linearGradient id="paint16_linear_4024_8919" x1="38.9656" y1="320.887" x2="42.4206" y2="320.887" gradientUnits="userSpaceOnUse">
<stop stop-color="#FFD802"/>
<stop offset="1" stop-color="#FFB200"/>
</linearGradient>
<linearGradient id="paint17_linear_4024_8919" x1="38.9656" y1="327.005" x2="42.4206" y2="327.005" gradientUnits="userSpaceOnUse">
<stop stop-color="#FFD802"/>
<stop offset="1" stop-color="#FFB200"/>
</linearGradient>
<linearGradient id="paint18_linear_4024_8919" x1="85.1826" y1="49.1318" x2="83.5445" y2="49.1318" gradientUnits="userSpaceOnUse">
<stop stop-color="#FFD802"/>
<stop offset="1" stop-color="#FFB200"/>
</linearGradient>
<linearGradient id="paint19_linear_4024_8919" x1="75.2435" y1="56.9101" x2="75.2435" y2="58.447" gradientUnits="userSpaceOnUse">
<stop stop-color="#FFD802"/>
<stop offset="1" stop-color="#FFB200"/>
</linearGradient>
</defs>
</svg>
