<svg preserveAspectRatio="none" width="100%" height="100%" overflow="visible" style="display: block;" viewBox="0 0 28 28" fill="none" xmlns="http://www.w3.org/2000/svg">
<g id="lock-1-svgrepo-com 1">
<path id="Subtract" d="M14 2.33301C15.5471 2.33301 17.031 2.94803 18.125 4.04199C19.2189 5.13594 19.833 6.61997 19.833 8.16699V9.33301H21C21.6188 9.33301 22.2128 9.57902 22.6504 10.0166C23.0879 10.4542 23.333 11.0482 23.333 11.667V23.333C23.333 23.9518 23.0879 24.5458 22.6504 24.9834C22.2128 25.421 21.6188 25.667 21 25.667H7C6.38116 25.667 5.78719 25.421 5.34961 24.9834C4.91213 24.5458 4.66699 23.9518 4.66699 23.333V11.667C4.66699 11.0482 4.91213 10.4542 5.34961 10.0166C5.78719 9.57902 6.38116 9.33301 7 9.33301H8.16699V8.16699C8.16699 6.61997 8.78114 5.13594 9.875 4.04199C10.969 2.94803 12.4529 2.33301 14 2.33301ZM14 14C13.3557 14 12.833 14.5227 12.833 15.167V19.833C12.833 20.4773 13.3557 21 14 21C14.6443 21 15.167 20.4773 15.167 19.833V15.167C15.167 14.5227 14.6443 14 14 14ZM14 4.66699C13.0719 4.66699 12.1817 5.03523 11.5254 5.69141C10.869 6.34778 10.5 7.23873 10.5 8.16699V9.33301H17.5V8.16699C17.5 7.23873 17.131 6.34778 16.4746 5.69141C15.8183 5.03523 14.9281 4.66699 14 4.66699Z" fill="var(--fill-0, white)"/>
</g>
</svg>
